<!DOCTYPE svg PUBLIC "-//W3C//DTD SVG 20010904//EN" "http://www.w3.org/TR/2001/REC-SVG-20010904/DTD/svg10.dtd">
<svg version="1.0" xmlns="http://www.w3.org/2000/svg" width="512px" height="512px" viewBox="0 0 5120 5120" preserveAspectRatio="xMidYMid meet">
<g id="layer1" fill="#004987" stroke="none">
 <path d="M1780 4195 c-603 -52 -589 -50 -602 -63 -12 -12 -108 -1123 -98 -1135 9 -10 1252 1222 1244 1234 -3 5 -13 8 -22 8 -9 -1 -244 -21 -522 -44z"/>
 <path d="M2806 4232 c-3 -6 271 -287 610 -625 416 -414 618 -609 621 -599 4 8 1 60 -5 116 -6 55 -28 303 -49 550 -35 416 -39 450 -58 461 -12 8 -219 29 -535 55 -283 23 -529 44 -546 47 -17 3 -34 1 -38 -5z"/>
 <path d="M2556 4143 c-3 -3 -6 -198 -6 -433 0 -235 -4 -450 -10 -478 -31 -166 -159 -285 -340 -315 l-75 -13 0 -369 0 -370 438 -5 c241 -3 441 -3 443 -1 2 2 4 362 4 800 l-1 796 -210 190 c-222 200 -232 208 -243 198z"/>
 <path d="M3518 2120 l-493 -500 -44 -110 c-31 -76 -41 -114 -34 -121 11 -11 982 66 995 79 4 4 21 160 38 347 18 187 34 358 36 380 2 22 11 90 19 150 17 127 23 245 12 263 -5 6 -14 12 -22 12 -7 0 -235 -225 -507 -500z"/>
 <path d="M1067 2603 c-7 -12 91 -1125 100 -1134 5 -5 125 -18 268 -29 143 -11 364 -29 490 -39 127 -10 234 -15 238 -11 5 4 -13 56 -39 116 l-47 109 -490 495 c-269 272 -495 496 -502 498 -7 2 -15 -1 -18 -5z"/>
 <path d="M2135 2090 c-3 -5 -21 -10 -39 -10 -19 0 -38 -6 -44 -12 -11 -15 473 -1287 500 -1315 16 -15 18 -15 26 8 5 13 17 42 26 64 28 66 476 1231 476 1238 0 3 -14 13 -32 21 -27 14 -91 16 -469 16 -281 0 -440 -4 -444 -10z"/>
 </g>

</svg>